<?xml version="1.0" encoding="UTF-8"?><svg xmlns="http://www.w3.org/2000/svg" viewBox="0 0 173 173"><defs><style>.d{fill:#fff;}.e{fill:#83c3ff;}</style></defs><g id="a"/><g id="b"><g id="c"><g><rect class="e" width="173" height="173" rx="12" ry="12"/><path class="d" d="M106.8,152.31c-5.1-2.1-9.07-5.02-11.9-8.75-2.83-3.74-4.54-8.07-5.13-13l-.07-.66h20.87l.15,.66c.68,3.08,2.22,5.47,4.61,7.18,2.39,1.71,5.71,2.56,9.96,2.56,2.73,0,5.05-.33,6.96-.99s3.38-1.6,4.43-2.82c1.05-1.22,1.58-2.68,1.58-4.39v-.07c0-2.1-.76-3.78-2.27-5.05-1.51-1.27-4.2-2.32-8.06-3.15l-13.33-2.86c-7.62-1.56-13.36-4.25-17.21-8.06-3.86-3.81-5.79-8.64-5.79-14.5v-.07c0-5.03,1.36-9.38,4.06-13.04,2.71-3.66,6.54-6.51,11.5-8.53,4.96-2.03,10.75-3.04,17.39-3.04s12.83,1.11,17.69,3.33c4.86,2.22,8.59,5.21,11.21,8.97,2.61,3.76,3.99,7.94,4.14,12.52v.73h-19.7l-.07-.59c-.34-2.78-1.65-5.11-3.92-6.99-2.27-1.88-5.38-2.82-9.34-2.82-2.44,0-4.57,.34-6.37,1.03-1.81,.68-3.2,1.64-4.17,2.86-.98,1.22-1.46,2.69-1.46,4.39v.07c0,2,.78,3.69,2.34,5.05,1.56,1.37,4.32,2.47,8.28,3.3l13.33,2.86c8.25,1.71,14.17,4.27,17.76,7.69,3.59,3.42,5.38,8.01,5.38,13.77v.07c0,5.13-1.46,9.59-4.39,13.4s-6.97,6.77-12.12,8.9-11.1,3.19-17.83,3.19c-7.23,0-13.39-1.05-18.49-3.15Z"/><path d="M34.24,92.48c-5.81-3.32-10.29-8.04-13.44-14.17-3.15-6.13-4.72-13.39-4.72-21.79v-.07c0-8.4,1.59-15.64,4.76-21.72,3.17-6.08,7.65-10.77,13.44-14.06s12.58-4.94,20.4-4.94c7.13,0,13.3,1.33,18.53,3.99,5.22,2.66,9.31,6.26,12.27,10.8,2.95,4.54,4.58,9.64,4.87,15.31v.51h-19.92l-.07-.66c-.64-3.71-2.25-6.84-4.83-9.38-2.59-2.54-6.1-3.81-10.55-3.81-3.47,0-6.48,.96-9.05,2.89-2.56,1.93-4.54,4.69-5.93,8.28s-2.09,7.87-2.09,12.85v.07c0,5.13,.7,9.48,2.09,13.07s3.37,6.32,5.93,8.2c2.56,1.88,5.6,2.82,9.12,2.82,4.3,0,7.75-1.21,10.36-3.63,2.61-2.42,4.26-5.6,4.94-9.56l.15-.66h19.92v.44c-.34,5.71-2,10.84-4.98,15.38-2.98,4.54-7.07,8.14-12.27,10.8s-11.29,3.99-18.27,3.99c-7.96,0-14.84-1.66-20.65-4.98Z"/></g></g></g></svg>