<?xml version="1.0" encoding="UTF-8"?><svg xmlns="http://www.w3.org/2000/svg" viewBox="0 0 35.73 27"><g id="a"/><g id="b"><g id="c"><g><path d="M19.6,17.12l13.8-11.11c1.33-1.07,1.39-3.09,.12-4.23s-2.86-1.79-4.64-1.79H6.85c-1.78,0-3.41,.68-4.64,1.79s-1.21,3.16,.12,4.23l13.8,11.11c1.02,.82,2.46,.82,3.48,0Z"/><path d="M19.14,20.84c-.14,.11-.3,.19-.46,.24-.47,.43-1.19,.49-1.7,.08L.86,8.19c-.36-.29-.89,0-.86,.45l.95,11.38c0,3.84,2.95,6.98,6.56,6.98H28.22c3.61,0,6.56-3.14,6.56-6.98l.95-11.38c.04-.46-.49-.75-.86-.45l-15.73,12.65Z"/></g></g></g></svg>