<?xml version="1.0" encoding="UTF-8"?><svg xmlns="http://www.w3.org/2000/svg" viewBox="0 0 47 46.13"><g id="a"/><g id="b"><g id="c"><path d="M23.5,0C10.52,0,0,10.52,0,23.5c0,10.78,7.26,19.86,17.16,22.63-.02-.21-.03-.42-.03-.63v-3.82c-.42-.07-.82-.21-1.2-.4-1.06-.54-1.88-1.46-2.45-2.51-.56-1.04-.93-2.25-1.86-2.98-1.03-.8-4.6-.58-4.99-1.68,1.01-.26,2.2-.21,3.24-.15,1.36,.08,2.78,.34,3.84,1.19,.74,.59,1.25,1.41,1.85,2.15,.44,.54,.96,1.05,1.57,1.35v-1.15c0-2.43,1.35-4.56,3.35-5.67-7.49-.87-10-5.12-10-10.23,0-1.38,.34-2.7,.95-3.9,0-.03-.02-.06-.03-.09l-.78-5.06c-.13-.83,.69-1.48,1.47-1.18l4.13,1.6c2.07-1.12,4.57-1.77,7.26-1.77s5.19,.65,7.26,1.77l4.13-1.6c.78-.3,1.6,.35,1.47,1.18l-.78,5.06s-.02,.06-.03,.09c.61,1.21,.95,2.52,.95,3.9,0,5.12-1.49,9.36-9.69,10.23,1.99,1.12,3.34,3.24,3.34,5.67v8c0,.19-.01,.37-.03,.55,9.77-2.85,16.9-11.87,16.9-22.55C47,10.52,36.48,0,23.5,0Z"/></g></g></svg>