<?xml version="1.0" encoding="UTF-8"?><svg xmlns="http://www.w3.org/2000/svg" viewBox="0 0 80.91 81.34"><defs><style>.d{fill:#fff;}</style></defs><g id="a"/><g id="b"><g id="c"><g><path class="d" d="M75.3,5.61h0c-6.03-6.03-14.5-7.42-18.83-3.09l-18.04,18.04c-1.59,1.59-1.38,4.23,.45,5.55h0c1.48,1.07,3.52,.91,4.82-.39L61.04,8.37c2.27-2.27,6.72-1.54,9.88,1.62s3.89,7.61,1.62,9.88l-25.82,25.82c-1.68,1.68-4.54,1.72-7.2,.35-.91-.47-2-.5-2.94-.1-1.36,.57-2.85,.89-4.41,.89l.06-1.26c.45,.56-.29,2.36,.23,2.89,6.03,6.03,14.51,7.42,18.83,3.09l27.1-27.1c4.33-4.33,2.94-12.8-3.09-18.83Z"/><rect class="d" x="33.44" y="42.01" width="6" height="11.16" rx="3" ry="3" transform="translate(-23.42 44.54) rotate(-49.65)"/></g><g><path class="d" d="M5.61,75.73h0c6.03,6.03,14.5,7.42,18.83,3.09l18.04-18.04c1.59-1.59,1.38-4.23-.45-5.55h0c-1.48-1.07-3.52-.91-4.82,.39l-17.35,17.35c-2.27,2.27-6.72,1.54-9.88-1.62s-3.89-7.61-1.62-9.88l25.82-25.82c1.68-1.68,4.54-1.72,7.2-.35,.91,.47,2,.5,2.94,.1,1.36-.57,2.85-.89,4.41-.89l-.06,1.26c-.45-.56,.29-2.36-.23-2.89-6.03-6.03-14.51-7.42-18.83-3.09L2.52,56.9c-4.33,4.33-2.94,12.8,3.09,18.83Z"/><rect class="d" x="41.48" y="28.17" width="6" height="11.16" rx="3" ry="3" transform="translate(99 21.72) rotate(130.35)"/></g></g></g></svg>