<?xml version="1.0" encoding="UTF-8"?><svg xmlns="http://www.w3.org/2000/svg" viewBox="0 0 35 39"><defs><style>.d{fill:#fff;}</style></defs><g id="a"/><g id="b"><g id="c"><path d="M27.15,4c1.74,1.59,2.26,2.11,3.85,3.85v24.85c0,1.25-1.05,2.3-2.3,2.3H8.3c-1.25,0-2.3-1.05-2.3-2.3V6.3c0-1.25,1.05-2.3,2.3-2.3H27.15m1.55-4H8.3C4.84,0,2,2.84,2,6.3v26.4c0,3.47,2.84,6.3,6.3,6.3H28.7c3.47,0,6.3-2.84,6.3-6.3V6.3q-3-3.3-6.3-6.3h0Z"/><g><polygon class="d" points="29.02 3.2 31.73 5.82 27.97 7 29.02 3.2"/><path d="M28.72,.62c-.59,0-1.18,.39-1.36,1.04l-.84,3.04-.84,3.04c-.24,.86,.39,1.61,1.2,1.61,.13,0,.27-.02,.41-.06l3.01-.94,3.01-.94c.99-.31,1.33-1.56,.62-2.25l-2.17-2.1-2.17-2.1c-.25-.24-.56-.35-.87-.35h0Z"/></g><g><rect x=".5" y="18.66" width="26.9" height="10.84" rx="2.01" ry="2.01"/><path d="M25.39,19.16c.83,0,1.51,.68,1.51,1.51v6.81c0,.83-.68,1.51-1.51,1.51H2.51c-.83,0-1.51-.68-1.51-1.51v-6.81c0-.83,.68-1.51,1.51-1.51H25.39m0-1H2.51c-1.38,0-2.51,1.13-2.51,2.51v6.81c0,1.38,1.13,2.51,2.51,2.51H25.39c1.38,0,2.51-1.13,2.51-2.51v-6.81c0-1.38-1.13-2.51-2.51-2.51h0Z"/></g><g><path class="d" d="M3.05,25.93v-3.58h1.84c.34,0,.6,.03,.78,.09s.33,.17,.44,.33c.11,.16,.17,.35,.17,.58,0,.2-.04,.37-.13,.51-.08,.14-.2,.26-.35,.35-.09,.06-.22,.1-.39,.14,.13,.04,.23,.09,.29,.13,.04,.03,.1,.09,.18,.19s.13,.17,.15,.22l.54,1.04h-1.25l-.59-1.09c-.07-.14-.14-.23-.2-.28-.08-.06-.17-.08-.27-.08h-.1v1.45h-1.11Zm1.11-2.13h.47c.05,0,.15-.02,.29-.05,.07-.01,.13-.05,.18-.11,.05-.06,.07-.13,.07-.21,0-.12-.04-.2-.11-.27s-.21-.09-.41-.09h-.49v.73Z"/><path class="d" d="M9.61,24.88h-1.99c.02,.16,.06,.28,.13,.36,.1,.11,.22,.17,.38,.17,.1,0,.19-.02,.28-.07,.05-.03,.11-.09,.17-.16l.98,.09c-.15,.26-.33,.45-.54,.56-.21,.11-.52,.17-.91,.17-.34,0-.61-.05-.81-.15-.2-.1-.36-.25-.49-.46-.13-.21-.19-.46-.19-.74,0-.41,.13-.73,.39-.98,.26-.25,.62-.38,1.08-.38,.37,0,.66,.06,.88,.17s.38,.27,.49,.49,.17,.49,.17,.83v.11Zm-1.01-.48c-.02-.19-.07-.33-.16-.41-.08-.08-.19-.12-.33-.12-.16,0-.28,.06-.38,.19-.06,.08-.1,.19-.11,.35h.98Z"/><path class="d" d="M9.89,25.21l.99-.09c.04,.12,.1,.2,.17,.25s.17,.08,.29,.08c.13,0,.24-.03,.31-.09,.06-.04,.09-.09,.09-.16,0-.07-.04-.13-.11-.17-.05-.03-.2-.06-.43-.1-.35-.06-.58-.12-.72-.17-.13-.05-.25-.14-.34-.26-.09-.12-.14-.26-.14-.42,0-.17,.05-.32,.15-.44s.24-.22,.41-.28,.41-.09,.7-.09c.31,0,.54,.02,.68,.07,.15,.05,.27,.12,.37,.22,.1,.1,.18,.23,.25,.4l-.94,.09c-.02-.08-.06-.14-.12-.18-.08-.05-.17-.08-.28-.08s-.19,.02-.25,.06c-.05,.04-.08,.09-.08,.15,0,.06,.03,.11,.1,.14,.06,.03,.21,.06,.42,.09,.33,.04,.58,.09,.74,.16,.16,.07,.28,.16,.37,.29,.08,.12,.13,.26,.13,.41s-.04,.29-.14,.44c-.09,.14-.23,.25-.43,.34-.19,.08-.46,.13-.79,.13-.47,0-.81-.07-1.01-.2-.2-.14-.33-.33-.39-.58Z"/><path class="d" d="M15.86,25.93h-.93v-.42c-.14,.17-.28,.3-.42,.37-.14,.07-.31,.11-.52,.11-.27,0-.49-.08-.64-.25-.16-.16-.23-.42-.23-.76v-1.65h1v1.43c0,.16,.03,.28,.09,.35s.15,.1,.25,.1c.12,0,.22-.05,.29-.14,.08-.09,.11-.25,.11-.49v-1.25h.99v2.59Z"/><path class="d" d="M16.47,23.34h.93v.38c.13-.16,.27-.27,.4-.34,.14-.07,.3-.1,.49-.1,.21,0,.37,.04,.49,.11s.22,.18,.3,.33c.16-.17,.3-.28,.43-.35,.13-.06,.29-.09,.48-.09,.28,0,.49,.08,.65,.25,.16,.17,.23,.42,.23,.77v1.63h-1v-1.48c0-.12-.02-.2-.07-.26-.07-.09-.15-.13-.25-.13-.12,0-.21,.04-.28,.13s-.11,.22-.11,.41v1.34h-1v-1.43c0-.11,0-.19-.02-.23-.02-.06-.06-.12-.11-.16-.05-.04-.11-.06-.18-.06-.11,0-.21,.04-.28,.13-.07,.09-.11,.23-.11,.42v1.32h-1v-2.59Z"/><path class="d" d="M24.34,24.88h-1.99c.02,.16,.06,.28,.13,.36,.1,.11,.22,.17,.38,.17,.1,0,.19-.02,.28-.07,.05-.03,.11-.09,.17-.16l.98,.09c-.15,.26-.33,.45-.54,.56-.21,.11-.52,.17-.91,.17-.34,0-.61-.05-.81-.15-.2-.1-.36-.25-.49-.46-.13-.21-.19-.46-.19-.74,0-.41,.13-.73,.39-.98,.26-.25,.62-.38,1.08-.38,.37,0,.66,.06,.88,.17s.38,.27,.49,.49,.17,.49,.17,.83v.11Zm-1.01-.48c-.02-.19-.07-.33-.16-.41-.08-.08-.19-.12-.33-.12-.16,0-.28,.06-.38,.19-.06,.08-.1,.19-.11,.35h.98Z"/></g></g></g></svg>