<?xml version="1.0" encoding="UTF-8"?>
<svg id="Layer_2" data-name="Layer 2" xmlns="http://www.w3.org/2000/svg" viewBox="0 0 85.43 85.43">
  <defs>
    <style>
      .cls-1, .cls-2 {
        stroke: #000;
        stroke-miterlimit: 10;
      }

      .cls-2 {
        fill: none;
        stroke-linecap: round;
        stroke-width: 5px;
      }

      .cls-3 {
        font-family: Jellee-Roman, Jellee;
        font-size: 25px;
      }

      .cls-4 {
        fill: #f9d100;
      }
    </style>
  </defs>
  <g id="Layer_3" data-name="Layer 3">
    <rect class="cls-4" width="85.43" height="85.43" rx="18.59" ry="18.59"/>
    <text class="cls-3" transform="translate(37.97 50.85)"><tspan x="0" y="0">ent</tspan></text>
    <g>
      <ellipse class="cls-1" cx="25.61" cy="43" rx="1.65" ry="3.07"/>
      <path class="cls-1" d="m18.76,43.95c0,1.7-1.08-.71-2.41-.71s-2.41,2.4-2.41.71,1.08-3.07,2.41-3.07,2.41,1.37,2.41,3.07Z"/>
      <path class="cls-2" d="m8.74,48.33c1.02,1.06,4.62,4.55,10.39,5.19,7.65.85,12.93-3.99,13.69-4.72"/>
      <path class="cls-1" d="m34.24,47.38c1.31,1.08,3.18,1.02,2.6,1.72s-2.11.4-3.42-.68-1.89-2.53-1.31-3.23.82,1.11,2.13,2.19Z"/>
      <path class="cls-1" d="m7.32,47.01c-1.31,1.08-3.18,1.02-2.6,1.72s2.11.4,3.42-.68,1.89-2.53,1.31-3.23-.82,1.11-2.13,2.19Z"/>
      <path class="cls-1" d="m12.5,36.86c-1.72,1.28-1.79,4.18-2.79,2.84s-.41-3.47,1.31-4.75,3.93-1.23,4.93.11-1.73.53-3.45,1.81Z"/>
      <path class="cls-1" d="m28.31,34.68c1.72,1.28,1.92,4,2.82,2.79s.24-3.24-1.48-4.52-3.85-1.34-4.76-.12,1.69.57,3.42,1.86Z"/>
    </g>
  </g>
</svg>