<?xml version="1.0" encoding="UTF-8"?>
<svg id="Layer_2" data-name="Layer 2" xmlns="http://www.w3.org/2000/svg" xmlns:xlink="http://www.w3.org/1999/xlink" viewBox="0 0 198.19 246.7">
  <defs>
    <style>
      .cls-1 {
        fill: #fff;
      }

      .cls-2 {
        fill: #c1272d;
      }

      .cls-3 {
        stroke: #999;
      }

      .cls-3, .cls-4, .cls-5, .cls-6 {
        fill: none;
      }

      .cls-3, .cls-5 {
        stroke-width: 3px;
      }

      .cls-3, .cls-5, .cls-6 {
        stroke-miterlimit: 10;
      }

      .cls-7 {
        fill: #4d4d4d;
      }

      .cls-8 {
        fill: #ff7bac;
      }

      .cls-9 {
        fill: gray;
      }

      .cls-4 {
        filter: url(#outer-glow-1);
      }

      .cls-10 {
        fill: #fae7d0;
      }

      .cls-11 {
        fill: #bbad9c;
      }

      .cls-12 {
        fill: #999;
      }

      .cls-13 {
        fill: #142f3b;
      }

      .cls-5 {
        stroke: #6595ac;
      }

      .cls-5, .cls-6 {
        stroke-linecap: round;
      }

      .cls-14 {
        fill: #666;
      }

      .cls-15 {
        fill: #ffe0b4;
      }

      .cls-6 {
        stroke: #f0c194;
        stroke-width: 2px;
      }
    </style>
    <filter id="outer-glow-1" filterUnits="userSpaceOnUse">
      <feOffset dx="0" dy="0"/>
      <feGaussianBlur result="blur" stdDeviation="2"/>
      <feFlood flood-color="#fff" flood-opacity="1"/>
      <feComposite in2="blur" operator="in"/>
      <feComposite in="SourceGraphic"/>
    </filter>
  </defs>
  <g id="Layer_1-2" data-name="Layer 1">
    <g class="cls-4">
      <rect class="cls-15" x=".65" y="205.39" width="24.33" height="33.49" rx="12.17" ry="12.17" transform="translate(24.64 -.05) rotate(6.35)"/>
      <rect class="cls-7" x="-30.07" y="159.56" width="109.88" height="35.99" rx="17.99" ry="17.99" transform="translate(-154.21 168.96) rotate(-79.28)"/>
      <rect class="cls-1" x="36.76" y="112.61" width="77.08" height="126.24" rx="23.7" ry="23.7"/>
      <rect class="cls-15" x="57.94" y="98.47" width="34.81" height="24.79" rx="9.62" ry="9.62"/>
      <path class="cls-13" d="m124.77,64.65l-1.36,12.88c-2.42,22.91-24.76,39.32-49.89,36.66h0c-25.13-2.66-43.54-23.39-41.11-46.29l1.36-12.88,91.01,9.63Z"/>
      <path class="cls-13" d="m126.08,64.79l-1.31,12.37c-2.33,22.01-24,37.75-48.41,35.17h0c-24.41-2.58-42.3-22.52-39.97-44.53l1.31-12.37,88.38,9.36Z"/>
      <circle class="cls-15" cx="38.99" cy="67.48" r="8.68"/>
      <circle class="cls-15" cx="118.83" cy="76.03" r="8.68"/>
      <rect class="cls-10" x="35.24" y="20.19" width="84.29" height="96.14" rx="42.15" ry="42.15" transform="translate(7.62 -7.77) rotate(6.04)"/>
      <polyline class="cls-6" points="77.17 82.45 76.46 80.01 78.02 76"/>
      <path class="cls-7" d="m50.5,67.77c4.64-3.04,11.02-2.12,14.35,2.44.48.65,1.3.98,2.05.54.64-.38,1.02-1.39.54-2.05-2-2.73-4.89-4.78-8.24-5.46s-7.22-.02-10.21,1.95c-1.61,1.05-.11,3.65,1.51,2.59h0Z"/>
      <path class="cls-7" d="m90.37,73.07c4.43-3.51,10.82-2.67,14.48,1.5,1.28,1.45,3.39-.68,2.12-2.12-2.28-2.6-5.49-4.2-8.93-4.55s-7.04.86-9.8,3.05c-.64.5-.53,1.59,0,2.12.63.63,1.48.5,2.12,0h0Z"/>
      <path class="cls-2" d="m58.38,92.38c.8-5.4,8.92-2.03,17.32-.4s17.32-.15,16.52,5.25-9.65,8.85-18.33,7.55-16.32-7.01-15.51-12.41Z"/>
      <path class="cls-8" d="m61.61,98.47c-1.72-3.09,5.38-1.69,11.01-.85s11.47.92,10.95,4.42c-.52,3.5-5.25,3.34-10.88,2.51s-9.56-3.35-11.08-6.07Z"/>
      <path class="cls-1" d="m59.99,90.32c.31-2.09,7.35-.16,16.03,1.14s15.71,1.45,15.4,3.55-7.6,2.74-16.28,1.45c-8.68-1.29-15.46-4.04-15.15-6.13Z"/>
      <path class="cls-14" d="m64.18,244.92l-47.51-1.04c-2.2-.05-3.93-1.86-3.85-4.02l4.04-107.62c.62-4.79,22.96-17.66,27.02-15.59l22.2,11.35c1.3.67,2.12,2,2.12,3.44v109.59c0,2.18-1.82,3.93-4.02,3.88Z"/>
      <path class="cls-14" d="m81.7,246.24l50.94-1.04c2.35-.05,4.21-1.86,4.12-4.03l-4.33-107.89c-.67-4.8-24.61-17.71-28.97-15.63l-23.8,11.38c-1.4.67-2.28,2-2.28,3.45v109.86c0,2.18,1.95,3.94,4.31,3.89Z"/>
      <path class="cls-12" d="m66.88,132.47c-2.14,14.64-1.27,29.4-.51,44.1.38,7.35.72,14.7.59,22.06s-1.06,14.8-1.55,22.21c-.27,4.14-.33,8.28.07,12.41.38,3.87,1.03,7.82-.17,11.6-.59,1.84,2.31,2.63,2.89.8,1.05-3.31.86-6.74.51-10.15-.38-3.67-.6-7.3-.49-10.98.24-7.44,1.33-14.82,1.63-22.26.58-14.72-.96-29.4-1.3-44.1-.19-8.31,0-16.66,1.21-24.89.28-1.89-2.61-2.7-2.89-.8h0Z"/>
      <path class="cls-9" d="m68.42,133.54l-24-12.78c-1.6-.85-1.99-2.96-.81-4.33l6.9-8.04c1.18-1.37,3.32-1.3,4.4.15l16.27,21.79c1.39,1.86-.71,4.31-2.76,3.22Z"/>
      <path class="cls-12" d="m76.91,133.09c-.23,15.09-.46,30.17-.69,45.26-.11,7.44-.29,14.87-.33,22.31-.02,3.7.17,7.35.74,11s.9,7.26.23,11.02c-1.27,7.13-3.98,14.79-.11,21.61.95,1.68,3.54.17,2.59-1.51-3.39-5.99-.69-13.08.41-19.3.62-3.46.66-6.78.15-10.26s-.98-7.18-1-10.87c-.05-7.34.19-14.68.3-22.02s.23-14.92.34-22.38c.13-8.29.25-16.58.38-24.87.03-1.93-2.97-1.93-3,0h0Z"/>
      <path class="cls-9" d="m80.29,134.9l24-12.78c1.6-.85,1.99-2.96.81-4.33l-6.9-8.04c-1.18-1.37-3.32-1.3-4.4.15l-16.27,21.79c-1.39,1.86.71,4.31,2.76,3.22Z"/>
      <path class="cls-12" d="m100.35,208.63c3.27,8.79,11.9,13.44,20.66,15.18,1.89.38,2.69-2.52.8-2.89-7.62-1.52-15.68-5.33-18.57-13.09-.67-1.79-3.57-1.02-2.89.8h0Z"/>
      <path class="cls-12" d="m43.53,209.14c-4.87,5.16-9.9,10.43-16.51,13.32-.74.33-.91,1.41-.54,2.05.45.77,1.31.86,2.05.54,6.82-2.99,12.08-8.47,17.12-13.79,1.33-1.4-.79-3.53-2.12-2.12h0Z"/>
      <rect class="cls-14" x="100.83" y="139.59" width="83.4" height="35.99" rx="17.99" ry="17.99" transform="translate(104.31 -51.43) rotate(31.77)"/>
      <rect class="cls-10" x="156.41" y="92.41" width="7.9" height="16.8" rx="3.95" ry="3.95" transform="translate(4.69 208.72) rotate(-66.89)"/>
      <rect class="cls-10" x="161.92" y="79.5" width="7.9" height="16.8" rx="3.95" ry="3.95" transform="translate(352.95 103.29) rotate(156.78)"/>
      <rect class="cls-10" x="173.33" y="77.95" width="7.9" height="16.8" rx="3.95" ry="3.95" transform="translate(335.05 204.64) rotate(-169.11)"/>
      <rect class="cls-10" x="183.72" y="83.21" width="7.9" height="16.8" rx="3.95" ry="3.95" transform="translate(288.03 274.75) rotate(-144.74)"/>
      <rect class="cls-10" x="186.2" y="92.82" width="7.9" height="16.8" rx="3.95" ry="3.95" transform="translate(171.96 315.85) rotate(-113.18)"/>
      <rect class="cls-10" x="161.35" y="89.68" width="24.33" height="33.49" rx="12.17" ry="12.17" transform="translate(12.83 -18.53) rotate(6.35)"/>
      <rect class="cls-14" x="126.19" y="128.61" width="83.4" height="35.99" rx="17.99" ry="17.99" transform="translate(2.9 296.48) rotate(-83.38)"/>
      <rect class="cls-3" x="126.19" y="128.61" width="83.4" height="35.99" rx="17.99" ry="17.99" transform="translate(2.9 296.48) rotate(-83.38)"/>
      <polygon class="cls-11" points="48.6 54.19 48.32 56.42 52.29 54.75 52.21 55.38 59.18 52.43 58.61 57.04 67.78 51.37 66.49 58.95 67.35 59.05 70.61 48.46 69.7 59.3 70.88 59.43 73.01 52.5 72.41 59.6 72.63 59.62 75.06 51.71 74.38 59.81 78.94 60.31 85.06 42.4 92.16 59.18 95.08 50.64 99.93 62.12 101.22 58.35 103.16 62.94 104.1 63.05 104.89 57.99 108.48 63.52 109.71 63.66 110.16 60.8 112.18 63.92 112.51 63.96 112.82 62.01 114.2 64.14 120.14 64.79 122.53 42.65 40.09 33.67 37.7 55.82 43.31 56.43 48.6 54.19"/>
      <path class="cls-13" d="m103.82,56.77l4.26,6.12.52.06.35-3.33,2.53,3.64.18.02.2-1.93,1.47,2.1,12.75,1.35,1.5-14.13C130.24,25.53,111.71,2.97,86.18.27h0c-25.52-2.7-48.37,15.48-51.03,40.61l-1.5,14.13,10.28,1.09,3.49-2.51-.3,2.84.62.07,3.48-2.5-.27,2.59,7.33-5.27-.61,5.73,9.22-6.63-.85,8.01.79.08,2.53-11.46.26,11.71,2.69-7.41-.81,7.17,3.3-9.1-1.11,9.82,3.76.4,6.97-18.26.11-1.08.15.38h0s0,0,0,0l8.04,20.57h.09s1.44-13.63,1.44-13.63l4.65,14.28.57.06.56-5.3,1.81,5.55,1.35.14.59-5.6Z"/>
      <path class="cls-5" d="m89.31,4.9h0c-25.52-2.7-48.37,15.48-51.03,40.61"/>
    </g>
  </g>
</svg>