<?xml version="1.0" encoding="UTF-8"?><svg xmlns="http://www.w3.org/2000/svg" viewBox="0 0 35 39"><defs><style>.d{fill:#fff;}</style></defs><g id="a"/><g id="b"><g id="c"><path d="M27.15,4c1.74,1.59,2.26,2.11,3.85,3.85v24.85c0,1.25-1.05,2.3-2.3,2.3H8.3c-1.25,0-2.3-1.05-2.3-2.3V6.3c0-1.25,1.05-2.3,2.3-2.3H27.15m1.55-4H8.3C4.84,0,2,2.84,2,6.3v26.4c0,3.47,2.84,6.3,6.3,6.3H28.7c3.47,0,6.3-2.84,6.3-6.3V6.3q-3-3.3-6.3-6.3h0Z"/><g><polygon class="d" points="29.02 3.2 31.73 5.82 27.97 7 29.02 3.2"/><path d="M28.72,.62c-.59,0-1.18,.39-1.36,1.04l-.84,3.04-.84,3.04c-.24,.86,.39,1.61,1.2,1.61,.13,0,.27-.02,.41-.06l3.01-.94,3.01-.94c.99-.31,1.33-1.56,.62-2.25l-2.17-2.1-2.17-2.1c-.25-.24-.56-.35-.87-.35h0Z"/></g><g><rect x=".5" y="20.5" width="21" height="9" rx="2.01" ry="2.01"/><path d="M19.49,21c.83,0,1.51,.68,1.51,1.51v4.98c0,.83-.68,1.51-1.51,1.51H2.51c-.83,0-1.51-.68-1.51-1.51v-4.98c0-.83,.68-1.51,1.51-1.51H19.49m0-1H2.51c-1.38,0-2.51,1.13-2.51,2.51v4.98c0,1.38,1.13,2.51,2.51,2.51H19.49c1.38,0,2.51-1.13,2.51-2.51v-4.98c0-1.38-1.13-2.51-2.51-2.51h0Z"/></g><g><path class="d" d="M5.96,26.88v-3.58h1.35c.24,0,.42,.01,.54,.03,.18,.03,.32,.08,.44,.17,.12,.08,.21,.2,.29,.35,.07,.15,.11,.31,.11,.49,0,.3-.1,.56-.29,.77-.19,.21-.54,.32-1.05,.32h-.92v1.46h-.47Zm.47-1.88h.93c.31,0,.52-.06,.65-.17s.19-.27,.19-.48c0-.15-.04-.28-.11-.38-.08-.11-.18-.18-.3-.21-.08-.02-.23-.03-.44-.03h-.92v1.28Z"/><path class="d" d="M9.29,26.88v-3.58h1.23c.28,0,.49,.02,.64,.05,.21,.05,.38,.13,.52,.26,.19,.16,.33,.36,.42,.61,.09,.25,.14,.53,.14,.85,0,.27-.03,.51-.1,.72s-.15,.38-.24,.52c-.1,.14-.21,.25-.33,.33-.12,.08-.26,.14-.43,.18-.17,.04-.36,.06-.57,.06h-1.29Zm.47-.42h.76c.24,0,.42-.02,.56-.07,.13-.04,.24-.11,.32-.19,.11-.11,.2-.26,.26-.45,.06-.19,.09-.42,.09-.69,0-.37-.06-.66-.18-.86-.12-.2-.27-.34-.45-.4-.13-.05-.33-.07-.61-.07h-.75v2.73Z"/><path class="d" d="M12.93,26.88v-3.58h2.41v.42h-1.94v1.11h1.68v.42h-1.68v1.63h-.47Z"/></g></g></g></svg>